<svg xmlns="http://www.w3.org/2000/svg" width="122.063" height="146.475" viewBox="0 0 122.063 146.475"><g transform="translate(0)"><g transform="translate(0)"><path d="M161.677,54.928c-10.353,0-21.361,8.559-21.361,24.412,0,8.046,3.075,13.792,6.05,19.352,3.165,5.918,6.157,11.509,6.157,20.318,0,14.376-6.985,21.361-21.361,21.361h-3.407a21.273,21.273,0,0,0,6.459-15.258V112.908c0-15.681-9.065-23.644-15.681-29.455-1.281-1.127-2.485-2.181-3.523-3.218-1.52-1.52-3.558-3.344-5.781-5.328-5.5-4.9-14.686-13.1-14.686-16.927V27.464c0-8.8-6.622-12.987-9.709-14.459-1.281-3.737-5.4-13-14.7-13a3.05,3.05,0,0,0-3.052,3.052c0,4.726-2.1,9.155-3.052,9.155-4.4,0-7.039,3.952-9.155,7.134a21.661,21.661,0,0,1-2.158,2.915,24.426,24.426,0,0,1-2.992,2.312c-3.308,2.342-7.057,5-7.057,9,0,11.115,13.1,15.258,21.361,15.258a14.848,14.848,0,0,1,2.461.137h.006c.59.858.59,5.328.584,10.5v1.567c0,1.49-.536,2.45-1.657,4.315-1.878,3.129-4.446,7.408-4.446,17.046,0,6.431,4.679,16.212,6.1,19.043v26.731H64.027a9.165,9.165,0,0,0-9.155,9.155v6.1a3.05,3.05,0,0,0,3.052,3.052h73.238c17.713,0,27.464-9.751,27.464-27.464,0-10.335-3.654-17.171-6.878-23.2-2.861-5.346-5.328-9.959-5.328-16.474,0-13.434,9.125-18.309,15.258-18.309a3.052,3.052,0,0,0,0-6.1Z" transform="translate(-42.666)" fill="#483f32"/></g></g></svg>