<svg xmlns="http://www.w3.org/2000/svg" width="98.881" height="120.982" viewBox="0 0 98.881 120.982"><defs><style>.a{fill:#fff;}</style></defs><g transform="translate(-42.666)"><g transform="translate(42.666)"><path class="a" d="M139.075,45.368c-8.387,0-17.3,7.069-17.3,20.164,0,6.646,2.491,11.391,4.9,15.984,2.564,4.888,4.988,9.506,4.988,16.782,0,11.874-5.659,17.643-17.3,17.643h-2.76a17.739,17.739,0,0,0,5.232-12.6V93.257c0-12.952-7.344-19.529-12.7-24.328-1.038-.931-2.013-1.8-2.854-2.658-1.231-1.255-2.883-2.762-4.683-4.4-4.452-4.047-11.9-10.82-11.9-13.981v-25.2c0-7.266-5.364-10.727-7.865-11.943C75.787,7.655,72.451,0,64.915,0a2.5,2.5,0,0,0-2.472,2.521c0,3.9-1.7,7.561-2.472,7.561-3.568,0-5.7,3.264-7.416,5.893a17.873,17.873,0,0,1-1.748,2.407,19.84,19.84,0,0,1-2.424,1.91c-2.68,1.935-5.717,4.13-5.717,7.433,0,9.181,10.612,12.6,17.3,12.6a11.8,11.8,0,0,1,1.994.113h0c.478.709.478,4.4.473,8.674v1.295c0,1.231-.435,2.023-1.342,3.564-1.521,2.585-3.6,6.119-3.6,14.079,0,5.312,3.79,13.39,4.944,15.728v22.079H59.97a7.5,7.5,0,0,0-7.416,7.561v5.041a2.5,2.5,0,0,0,2.472,2.521h59.329c14.349,0,22.248-8.054,22.248-22.684,0-8.536-2.96-14.182-5.572-19.159-2.318-4.416-4.316-8.226-4.316-13.606,0-11.1,7.392-15.123,12.36-15.123a2.521,2.521,0,0,0,0-5.041Z" transform="translate(-42.666)"/></g></g></svg>