<svg xmlns="http://www.w3.org/2000/svg" width="64.979" height="43.319" viewBox="0 0 64.979 43.319"><g transform="translate(0 -85.333)"><g transform="translate(0 85.333)"><g transform="translate(0 0)"><path d="M58.21,85.333H6.769A6.778,6.778,0,0,0,0,92.1v29.782a6.778,6.778,0,0,0,6.769,6.769H58.21a6.778,6.778,0,0,0,6.769-6.769V92.1A6.778,6.778,0,0,0,58.21,85.333Zm4.061,36.551a4.066,4.066,0,0,1-4.061,4.061H6.769a4.066,4.066,0,0,1-4.061-4.061V92.1a4.066,4.066,0,0,1,4.061-4.061H58.21A4.066,4.066,0,0,1,62.271,92.1v29.782Z" transform="translate(0 -85.333)" fill="#483f32"/></g></g><g transform="translate(0 93.455)"><path d="M63.625,149.333H1.354A1.354,1.354,0,0,0,0,150.687v8.122a1.354,1.354,0,0,0,1.354,1.354H63.625a1.354,1.354,0,0,0,1.354-1.354v-8.122A1.354,1.354,0,0,0,63.625,149.333Zm-1.354,8.122H2.707V152.04H62.271v5.415Z" transform="translate(0 -149.333)" fill="#483f32"/></g><g transform="translate(8.122 112.408)"><path d="M81.6,298.667H65.354a1.354,1.354,0,1,0,0,2.707H81.6a1.354,1.354,0,1,0,0-2.707Z" transform="translate(-64 -298.667)" fill="#483f32"/></g><g transform="translate(8.122 117.822)"><g transform="translate(0 0)"><path d="M81.6,341.333H65.354a1.354,1.354,0,0,0,0,2.708H81.6a1.354,1.354,0,0,0,0-2.708Z" transform="translate(-64 -341.333)" fill="#483f32"/></g></g><g transform="translate(46.027 109.7)"><g transform="translate(0 0)"><path d="M369.436,277.333h-2.707a4.066,4.066,0,0,0-4.061,4.061V284.1a4.066,4.066,0,0,0,4.061,4.061h2.707A4.066,4.066,0,0,0,373.5,284.1v-2.707A4.066,4.066,0,0,0,369.436,277.333Zm1.354,6.769a1.354,1.354,0,0,1-1.354,1.354h-2.707a1.354,1.354,0,0,1-1.354-1.354v-2.707a1.354,1.354,0,0,1,1.354-1.354h2.707a1.354,1.354,0,0,1,1.354,1.354Z" transform="translate(-362.667 -277.333)" fill="#483f32"/></g></g></g></svg>