<svg xmlns="http://www.w3.org/2000/svg" width="131.038" height="146.475" viewBox="0 0 131.038 146.475"><path d="M136.7,33.735,122.775,27.7a12.338,12.338,0,0,0-8.659-9.894l-.753-9.321a3.322,3.322,0,0,0-2.115-2.89,2.982,2.982,0,0,0-3.312.926l-3.642,4.316-2.234-8.4A3.175,3.175,0,0,0,99.165,0,3.143,3.143,0,0,0,96.12,2.214L76.843,59.354A56.354,56.354,0,0,0,43.43,85.73a52.957,52.957,0,0,0-5.958,38.334c1.736,7.5,5.032,12.446,8.4,15.688H43.149c-12.543.329-24.166-7.333-29.594-19.508a3.032,3.032,0,0,0-4.167-1.577,3.47,3.47,0,0,0-1.468,4.477c6.355,14.256,19.812,23.331,34.463,23.331h59.642a3.246,3.246,0,0,0,3.124-3.357c0-9.035-6.707-13.153-12.627-14.665a27.065,27.065,0,0,0,2.693-14.232l.816-.117,18.724,30.848a3.076,3.076,0,0,0,2.617,1.523h11.369a3.1,3.1,0,0,0,2.735-1.735,3.572,3.572,0,0,0-.092-3.411c-.121-.206-11.859-20.231-18.169-31.443v-56.4a24.538,24.538,0,0,0,2.893.173c9.063,0,17.586-5.494,22.175-15.234,0-.008.121-.272.14-.323A3.445,3.445,0,0,0,136.7,33.735Z" transform="translate(-7.613 -0.002)" fill="#483f32"/></svg>