<svg xmlns="http://www.w3.org/2000/svg" width="27.938" height="24.417" viewBox="0 0 27.938 24.417"><defs><style>.a{fill:#fff;}</style></defs><g transform="translate(0 0)"><path class="a" d="M79.624,185.082a6.8,6.8,0,0,0-11.455,0l-3.029,4.726a4.306,4.306,0,0,0,5.358,6.265l.057-.025a8.464,8.464,0,0,1,6.74.025,4.282,4.282,0,0,0,1.728.366,4.337,4.337,0,0,0,.964-.109,4.306,4.306,0,0,0,2.667-6.522Zm0,0" transform="translate(-60.942 -172.021)"/><path class="a" d="M5.014,106.552a3.3,3.3,0,0,0,1.928-2.045,4.266,4.266,0,0,0-.075-2.942,4.269,4.269,0,0,0-1.917-2.233,3.3,3.3,0,0,0-2.8-.226A3.781,3.781,0,0,0,.3,104.094a3.989,3.989,0,0,0,3.588,2.668,3.127,3.127,0,0,0,1.128-.209Zm0,0" transform="translate(0 -93.498)"/><path class="a" d="M128.517,9.352a4.423,4.423,0,0,0,4.1-4.675,4.139,4.139,0,1,0-8.207,0A4.422,4.422,0,0,0,128.517,9.352Zm0,0" transform="translate(-117.626)"/><path class="a" d="M286.666,48.557h0a3.345,3.345,0,0,0,1.057.171,4.253,4.253,0,0,0,3.872-3.047,4.585,4.585,0,0,0-.065-3.163,3.469,3.469,0,0,0-5.143-1.709,4.586,4.586,0,0,0-1.946,2.495,4.056,4.056,0,0,0,2.225,5.254Zm0,0" transform="translate(-268.688 -38.056)"/><path class="a" d="M382.8,171.675h0a4.021,4.021,0,0,0-4.747,6.413,3.208,3.208,0,0,0,1.927.622,4.149,4.149,0,0,0,3.277-1.735A3.783,3.783,0,0,0,382.8,171.675Zm0,0" transform="translate(-356.179 -161.72)"/></g></svg>