<svg xmlns="http://www.w3.org/2000/svg" width="127.644" height="121.545" viewBox="0 0 127.644 121.545">
  <g id="pawprint" transform="translate(-10.369 36.216) rotate(-27)" opacity="0.05">
    <path id="Tracé_35" data-name="Tracé 35" d="M128.65,195.208a28.793,28.793,0,0,0-48.485,0l-12.822,20a18.225,18.225,0,0,0,22.679,26.52l.242-.107a35.828,35.828,0,0,1,28.529.107,18.125,18.125,0,0,0,7.313,1.547,18.357,18.357,0,0,0,4.08-.463,18.228,18.228,0,0,0,11.287-27.606Zm0,0" transform="translate(-49.572 -139.926)" fill="#ec6608"/>
    <path id="Tracé_36" data-name="Tracé 36" d="M21.224,131.309a13.978,13.978,0,0,0,8.16-8.656,18.057,18.057,0,0,0-.318-12.454,18.071,18.071,0,0,0-8.114-9.451A13.979,13.979,0,0,0,9.1,99.793c-7.662,2.946-11.177,12.413-7.837,21.11,2.669,6.922,8.893,11.291,15.186,11.291a13.238,13.238,0,0,0,4.775-.885Zm0,0" transform="translate(0 -76.053)" fill="#ec6608"/>
    <path id="Tracé_37" data-name="Tracé 37" d="M141.782,39.584c9.578,0,17.37-8.878,17.37-19.79S151.36,0,141.782,0,124.414,8.88,124.414,19.795,132.205,39.584,141.782,39.584Zm0,0" transform="translate(-95.679)" fill="#ec6608"/>
    <path id="Tracé_38" data-name="Tracé 38" d="M294.657,75.4h0a14.158,14.158,0,0,0,4.473.723c6.985,0,13.792-5.084,16.389-12.9a19.409,19.409,0,0,0-.277-13.39A14.683,14.683,0,0,0,293.475,42.6a19.411,19.411,0,0,0-8.236,10.559c-3.153,9.488,1.072,19.464,9.418,22.239Zm0,0" transform="translate(-218.556 -30.956)" fill="#ec6608"/>
    <path id="Tracé_39" data-name="Tracé 39" d="M402.4,173.684l0,0c-6.605-4.879-16.483-2.764-22.022,4.717s-4.668,17.547,1.927,22.43a13.579,13.579,0,0,0,8.156,2.634,17.562,17.562,0,0,0,13.87-7.346c5.532-7.485,4.668-17.547-1.928-22.432Zm0,0" transform="translate(-289.723 -131.547)" fill="#ec6608"/>
  </g>
</svg>
