<svg xmlns="http://www.w3.org/2000/svg" width="46.537" height="54.973" viewBox="0 0 46.537 54.973"><path d="M13.5,34.377C13.075,36.7,11.39,47.554,10.893,50.62c-.036.218-.121.3-.364.3H1.487A1.473,1.473,0,0,1,.02,49.238l7.1-45.081A2.462,2.462,0,0,1,9.548,2.109c18.462,0,20.013-.449,24.729,1.382,7.285,2.824,7.952,9.637,5.334,17.007C37,28.086,30.822,31.347,22.627,31.444c-5.261.085-8.425-.849-9.128,2.933ZM43.283,16.934c-.218-.158-.3-.218-.364.158a28.37,28.37,0,0,1-1.067,4.073C37.016,34.959,23.609,33.759,17.063,33.759A1.22,1.22,0,0,0,15.742,34.9C13,51.917,12.457,55.469,12.457,55.469a1.291,1.291,0,0,0,1.285,1.564h7.7a2.174,2.174,0,0,0,2.109-1.806c.085-.655-.133.739,1.746-11.067.558-2.667,1.733-2.388,3.552-2.388,8.607,0,15.322-3.491,17.322-13.613.788-4.218.558-8.655-2.885-11.225Z" transform="translate(-0.006 -2.06)" fill="#483f32"/></svg>