<svg id="Layer_1" data-name="Layer 1" xmlns="http://www.w3.org/2000/svg" viewBox="0 0 301.1 113.37"><defs><style>.cls-1{fill:#70624f;}.cls-2{fill:#eb651b;}.cls-3{fill:#fff;}</style></defs><title>logo</title><path class="cls-1" d="M290.6,54.83a2.53,2.53,0,0,0-2.3,1.7,1.39,1.39,0,0,0-1.4-1.1c-0.5,0-.9.1-0.9,0.6v1.8a10.5,10.5,0,0,1-.3,2.4,4.27,4.27,0,0,1-4.3,3.3c-1.8,0-2.1-1.1-2.1-1.6,3.2,0.4,4.8-1.6,4.8-4.1a2.63,2.63,0,0,0-2.9-2.9c-2.3,0-3.7,2.2-4.1,4.7-0.6-.3-0.9-0.1-1,0.6a1.13,1.13,0,0,0,.8,1.5c-0.1,1.9,1,3.9,4.3,3.9a5.41,5.41,0,0,0,3.8-1.4v0.2a1.49,1.49,0,0,0,1.4,1.3c1.4,0,.8-3.2,1.7-5.8,0.6-1.9,1.7-2.7,3-2.6,0.4,0.1.8-.9,0.7-1.4A1.13,1.13,0,0,0,290.6,54.83Zm-9,2c0.9,1.6-.5,3.7-2.2,3.2C279.4,58.43,280.6,56.83,281.6,56.83Z"/><path class="cls-1" d="M298.1,62.73a1.34,1.34,0,0,0-1.3,1.4,1.67,1.67,0,0,0,1.8,1.4,1.41,1.41,0,0,0,1.3-1.4A1.83,1.83,0,0,0,298.1,62.73Z"/><path class="cls-1" d="M159.1,60.73c-0.7,0-.7.6-1.3,1.6a12.6,12.6,0,0,1-.9,1.3,4.1,4.1,0,0,1-.8-2.7c0-2.2.8-3.6,0.8-4.3a1,1,0,0,0-1.5-.9,2.41,2.41,0,0,0-1.9-.8c-3,0-4.7,4.1-4.7,6.7s1.3,4,3.1,4a3.15,3.15,0,0,0,2.6-1.4,2.19,2.19,0,0,0,2.1,1.8c2.3,0,3.8-3.5,3.8-4.1A1.47,1.47,0,0,0,159.1,60.73Zm-7.2,2.7c-0.7,0-.9-0.8-0.9-1.8,0-2.4,1.5-4.6,2.2-4.7a2.74,2.74,0,0,1,.7,1.9C153.9,61.33,152.7,63.43,151.9,63.43Z"/><path class="cls-1" d="M138.5,54.83a3,3,0,0,0-2.4,1.8,2,2,0,0,0-2.1-1.8,11,11,0,0,0-1.8.2,6.15,6.15,0,0,0-.1-1.4c-0.2-3.4-1.9-4.7-4.4-4.7a3.94,3.94,0,0,0-3.9,4.5c0.1,1.5,1.2,3.9,5.7,3.8-0.5,3-1.8,5.8-3.4,6-1.3.2-2.1-.8-2.3-2.7a8.44,8.44,0,0,1,.3-3.3c0.3-1.1-1.2-3.2-1.7-2.2a11.32,11.32,0,0,0-.9,5.9c0.3,3.1,1.7,4.6,4.4,4.5,3.6-.1,5.4-4.4,6-8.6a4.87,4.87,0,0,1,1.2-.1,1.27,1.27,0,0,1,.6.1c0.1,1.9-1.1,6.4-1,7.3a1.59,1.59,0,0,0,1.3,1.3c0.6,0,.7-0.6.9-1.7,0.6-3.7,1.6-5.9,3.2-6.7,0.6,2.6-.7,7-0.6,7.5a1.3,1.3,0,0,0,1.7.8c0.7-.3,1.5-5.2,1.4-7.2C140.7,55.43,139.6,54.73,138.5,54.83Zm-8.7.4c-1.7.1-3.5-.2-3.6-2.2a1.64,1.64,0,0,1,1.6-2c1.3-.1,1.9,1.1,2,2.4A5.43,5.43,0,0,1,129.8,55.23Z"/><path class="cls-1" d="M299.7,61.23c0.2-.4,1.4-9.8,1.4-10.7s-1.1-1.2-1.7-1.1-0.7.3-.9,2.9c-0.3,3.7-.8,8-0.7,8.4C297.8,61.52,299.4,61.83,299.7,61.23Z"/><path class="cls-1" d="M213.9,53.73a1,1,0,0,0,.9-0.8c0-.6-1.2-1.2-1.8-2s-1.1-1.8-1.9-1.8a1.28,1.28,0,0,0-1,1.1C210,51.62,212.6,53.73,213.9,53.73Z"/><path class="cls-1" d="M270.7,70.52a1.31,1.31,0,0,1-1.8-.9,4.43,4.43,0,0,1,.4-1.9,0.7,0.7,0,0,0-.8-0.6,2.28,2.28,0,0,0-1.1.3,2.59,2.59,0,0,0-.7,2.1,2.93,2.93,0,0,0,3.1,3.1c5.3,0,4.6-7.9,5-11.2,0.3-2.7.7-3.8,0.7-4.7a1.05,1.05,0,0,0-1.6-.9A2.56,2.56,0,0,0,272,55c-2.3,0-3.8,2.7-4.3,5.1-0.3,1.4-.9,3.1-1.9,3.5A3.78,3.78,0,0,1,265,61c0-2.2.8-3.6,0.8-4.3a1,1,0,0,0-1.5-.9,2.41,2.41,0,0,0-1.9-.8c-2.7,0-4.3,3.2-4.7,5.8a7.24,7.24,0,0,1-3.2,2.7,23.94,23.94,0,0,1,.4-6c1-.3,2.8-0.3,3.1-0.7a1.34,1.34,0,0,0-1-1.7c-0.4,0-1.6.2-1.6,0.2,0.2-1.4.9-4.2,0.9-4.7a1.62,1.62,0,0,0-1.4-1.2,1,1,0,0,0-.7.7,29.35,29.35,0,0,0-1.3,5.3,1.68,1.68,0,0,0-1.1,1.4,1.24,1.24,0,0,0,.6.8c-0.1.9-.3,3.1-0.3,4.8,0,2.2.6,3.3,2,3.3,1.2,0,2.7-1.1,3.7-2.1a2.93,2.93,0,0,0,2.8,2.1,3.62,3.62,0,0,0,2.6-1.3,2.17,2.17,0,0,0,2.1,1.4,2.92,2.92,0,0,0,2.6-1.7,2.38,2.38,0,0,0,4.4.4C272.2,65.23,272,69.23,270.7,70.52Zm-9.9-7.1c-0.7,0-.9-0.8-0.9-1.8,0-2.4,1.5-4.6,2.2-4.7a2.74,2.74,0,0,1,.7,1.9C262.8,61.33,261.6,63.43,260.8,63.43Zm9.9,0c-0.7,0-.9-0.7-0.9-1.6,0-2.3,1.5-4.7,2.2-4.9a2.94,2.94,0,0,1,.7,1.9C272.7,61.33,271.7,63.43,270.7,63.43Z"/><path class="cls-1" d="M231.2,54.83a3.44,3.44,0,0,0-2.4,1.9,1.43,1.43,0,0,0-1.6-1.7c-0.6.1-.7,0.7-0.7,2.2-0.1,3.1-1.6,13-1.6,14.3a1.49,1.49,0,0,0,1.4,1.3c1.3-.1.8-1.8,1.4-5.8a27.9,27.9,0,0,1,1.3-6.6,6.23,6.23,0,0,1,2.3-3.3,4,4,0,0,1,.8,2.6c0,4-3.1,3.7-3,4.7a1.4,1.4,0,0,0,1.4,1.2c0.8-.1,3.8-1.6,3.8-5.9C234.3,56.52,233,54.73,231.2,54.83Z"/><path class="cls-1" d="M250.2,54.83a2.53,2.53,0,0,0-2.3,1.7,1.39,1.39,0,0,0-1.4-1.1c-0.5,0-.9.1-0.9,0.6v1.8a22.27,22.27,0,0,1-.4,3.4c-0.4,1.7-1.3,2.2-1.8,2.3a4,4,0,0,1-.8-2.6c0-2.2.8-3.6,0.8-4.3a1,1,0,0,0-1.5-.9,2.41,2.41,0,0,0-1.9-.8c-3,0-4.7,4.1-4.7,6.7s1.3,4,3.1,4a3.62,3.62,0,0,0,2.6-1.3,2.1,2.1,0,0,0,1.9,1.4,2.46,2.46,0,0,0,2.2-1,1.38,1.38,0,0,0,1.3.9c1.4,0,.8-3.2,1.7-5.8,0.6-1.9,1.7-2.7,3-2.6,0.4,0.1.8-.9,0.7-1.4A2,2,0,0,0,250.2,54.83Zm-11.9,8.6c-0.7,0-.9-0.8-0.9-1.8,0-2.4,1.5-4.6,2.2-4.7a2.74,2.74,0,0,1,.7,1.9C240.3,61.33,239.2,63.43,238.3,63.43Z"/><path class="cls-1" d="M197.9,60.52a8.3,8.3,0,0,1-2.8,2.8,28.19,28.19,0,0,1,.5-5.9c1-.3,2.8-0.3,3.1-0.7a1.3,1.3,0,0,0-1-1.7c-0.4,0-1.6.2-1.6,0.2,0.2-1.4.9-4.3,0.9-4.8a1.62,1.62,0,0,0-1.4-1.2,1,1,0,0,0-.7.7,29.94,29.94,0,0,0-1.2,5.3,1.68,1.68,0,0,0-1.1,1.4,1.24,1.24,0,0,0,.6.8,46.12,46.12,0,0,0-.4,4.7c0,2.2.7,3.3,2.2,3.3,1.8,0,4.5-2.9,4.5-3.9S198.3,60,197.9,60.52Z"/><path class="cls-1" d="M188.7,54.83c-0.8.1-1.4,0.4-2.3,1.7a1.5,1.5,0,0,0-1.4-1.1,0.74,0.74,0,0,0-.9.7c0,0.7-.1,1.3-0.2,2.3a16.66,16.66,0,0,1-.6,2.9,2.63,2.63,0,0,1-1.8,2.2,4,4,0,0,1-.8-2.6c0-2.2.8-3.6,0.8-4.3a1,1,0,0,0-1.5-.9,2.41,2.41,0,0,0-1.9-.8c-2.6,0-4.2,3.1-4.6,5.5l-0.1.1a6.51,6.51,0,0,1-3.3,2.8,23.62,23.62,0,0,1,.4-6c1-.3,2.8-0.3,3.1-0.7a1.34,1.34,0,0,0-1-1.7c-0.4,0-1.6.2-1.6,0.2,0.2-1.4.9-4.2,0.9-4.7a1.62,1.62,0,0,0-1.4-1.2,1,1,0,0,0-.7.7,29.35,29.35,0,0,0-1.3,5.3,1.68,1.68,0,0,0-1.1,1.4,1.24,1.24,0,0,0,.6.8c-0.1.9-.3,3.1-0.3,4.9,0,2.1.7,3.2,2.2,3.2,1.1,0,2.6-1.1,3.6-2.1a2.85,2.85,0,0,0,2.8,2.1,3.62,3.62,0,0,0,2.6-1.3,2.1,2.1,0,0,0,1.9,1.4,2.71,2.71,0,0,0,2.2-1,1.35,1.35,0,0,0,1.2.9c0.6,0,.8-0.6,1-1.7,0.7-3.7,1.7-5.9,3.3-6.7,0.7,2.7-.7,7-0.6,7.5a1.3,1.3,0,0,0,1.7.8c0.7-.3,1.5-5.2,1.4-7.2C191,55.43,189.8,54.73,188.7,54.83Zm-12.1,8.6c-0.7,0-.9-0.8-0.9-1.8,0-2.4,1.5-4.6,2.2-4.7a2.74,2.74,0,0,1,.7,1.9C178.6,61.33,177.4,63.43,176.6,63.43Z"/><path class="cls-1" d="M217,60.73c-0.8,0-.8.6-1.4,1.6a5.57,5.57,0,0,1-.9,1.3,4.1,4.1,0,0,1-.8-2.7c0-2.2.8-3.6,0.8-4.3a1,1,0,0,0-1.5-.9,2.41,2.41,0,0,0-1.9-.8c-3,0-4.7,4.1-4.7,6.7s1.3,4,3.1,4a3.15,3.15,0,0,0,2.6-1.4,2.19,2.19,0,0,0,2.1,1.8c2.3,0,3.8-3.5,3.8-4.1A1.29,1.29,0,0,0,217,60.73Zm-7.2,2.7c-0.7,0-.9-0.8-0.9-1.8,0-2.4,1.5-4.6,2.2-4.7a2.74,2.74,0,0,1,.7,1.9C211.8,61.33,210.7,63.43,209.8,63.43Z"/><path class="cls-2" d="M46.5,9.73a8.3,8.3,0,0,1,4.1-.9,8.3,8.3,0,0,1,4.1.9h0l23.4,13.4a1.23,1.23,0,0,1,.4,1.6,1.1,1.1,0,0,1-1,.6,1.27,1.27,0,0,1-.6-0.1L54.5,12.42h0l-1-.6a6.59,6.59,0,0,0-2.9-.6,6.21,6.21,0,0,0-2.9.6s-31,17.9-37,21.7C1.3,39.32.1,41.42,0.1,59.62v18.5c0,4.5,3.2,10,7.1,12.3l36.9,21.3a16.1,16.1,0,0,0,14.2,0l36.8-21.5c3.9-2.3,7.1-7.8,7.1-12.3V35.32c0-4.5-3.2-10-7.1-12.3L58.2,1.73a15.47,15.47,0,0,0-14.2,0L7.1,23C3.2,25.33,0,30.83,0,35.33v1.6Z"/><path class="cls-1" d="M28.3,67.62a3.74,3.74,0,0,0-.9-0.9,6,6,0,0,0-1.2-1.1,1.28,1.28,0,0,0-1.7.7,4.67,4.67,0,0,1-.5,1,9.76,9.76,0,0,1,.8-4.8,0.91,0.91,0,0,0-.2-1.1l-0.9-.9-0.9-.9a1.23,1.23,0,0,0-1.3-.1l-0.3-.3c-1.8-1.7-4.2.5-5.1,2.1a9,9,0,0,0-1.2,3.8h0c-0.7.9-3.2,3.5-4.9,3.4a11.64,11.64,0,0,1-.5-2.8,52.29,52.29,0,0,0,5-6.4,18.67,18.67,0,0,0,3.1-11.2,9.58,9.58,0,0,0-.9-3.7,5.91,5.91,0,0,0-1.3-1.7,5.85,5.85,0,0,0-1.6-1.3,3.37,3.37,0,0,0-1.2-.4c-2.8-.3-4.2,4.3-4.8,6.1A44.89,44.89,0,0,0,5.8,63a70.14,70.14,0,0,1-5.6,5.3v4.2a1.82,1.82,0,0,0,1.8.4,48.1,48.1,0,0,0,4.8-4.2,2.09,2.09,0,0,0,.4.6c0.1,0.2.6,0.6,1,1.1a8.72,8.72,0,0,0,2.2,1.8c2.4,0.9,5.1-.8,6.9-2.6a0.1,0.1,0,0,1,.1.1h0a0.38,0.38,0,0,0,.2.2c1.6,1.6,3.1,1.3,4.3.1a0.2,0.2,0,0,0,.2.1c0.1,0.2.3,0.3,0.4,0.5a1.76,1.76,0,0,0,.5.4,2.38,2.38,0,0,0,3.2.8,5.58,5.58,0,0,0,2.3-3.3A1.49,1.49,0,0,0,28.3,67.62ZM11.8,48.73a11.18,11.18,0,0,1,1.6-3.3c1.1,4.4-1,8.8-3.6,12.5A47.11,47.11,0,0,1,11.8,48.73Zm7.1,17.5a6.19,6.19,0,0,1,.7-1.9A7.31,7.31,0,0,1,18.9,66.23Z"/><path class="cls-1" d="M88.4,53.23l-0.8-.8a6,6,0,0,0-.8-0.8,12.56,12.56,0,0,0-8.6-4.1,11.64,11.64,0,0,0,.6-3.8,11.14,11.14,0,0,0-2.3-6.8c-0.3-.4-1.3-1.4-2.1-2.2s-1.8-1.8-2.2-2.1a9.61,9.61,0,0,0-5.7-2H53.1a3.8,3.8,0,0,0-3.8,3.8v10l-0.8-.9H48.4l-0.7-.7H37.2c-4.7,0-10.1,4.5-10.1,11.4a12.08,12.08,0,0,0,1.8,6,18.73,18.73,0,0,0,2.8,3.2,35.08,35.08,0,0,0,2.6,2.4,4.46,4.46,0,0,0,2.6,1.1c2.7,0.2,11.2.7,11.4,0.7a1.27,1.27,0,0,1,.6.1,2.49,2.49,0,0,1,.1.8,3.4,3.4,0,0,1-3.3,3.3H31a3.8,3.8,0,0,0-3.8,3.8,5.26,5.26,0,0,0,.4,1.8c0.3,0.5,1.4,1.6,2,2.3a11.05,11.05,0,0,0,1.3,1.2,3.66,3.66,0,0,0,2.5.9h15c4.3,0,9.6-5,9.6-11.1a11,11,0,0,0-1.1-4.9,21.69,21.69,0,0,0-3.5-4.4,19.27,19.27,0,0,0-1.6-1.5,9.35,9.35,0,0,0-5-1.9c-4.4-.2-9.6-0.4-9.6-0.4a1.75,1.75,0,0,1-.5-0.1,3.75,3.75,0,0,1-.1-1.1A3.25,3.25,0,0,1,39.7,53h9.7v3.9l2.4,2.4a9.44,9.44,0,0,1,3.2,1.6,9,9,0,0,1,1.3,2.6,0.2,0.2,0,0,0,.1.2l0.7,0.6v0.1l0.9,0.8v0l0.7,0.6a0.2,0.2,0,0,0,.1.2V54.63h7.5a12.32,12.32,0,0,0-1.4,5.7v18.6h0a3.61,3.61,0,0,0,.6,2,12.63,12.63,0,0,0,1.7,1.8,22.17,22.17,0,0,0,1.8,1.7,3.61,3.61,0,0,0,2,.6,3.76,3.76,0,0,0,3.7-3.7v-9.8h8.2v7.4h0a3.49,3.49,0,0,0,.8,2.2l1.4,1.4a18.08,18.08,0,0,0,2.2,2,3.42,3.42,0,0,0,1.8.4,3.76,3.76,0,0,0,3.7-3.7V62.63A14.12,14.12,0,0,0,88.4,53.23Zm-5.7,6.5v3.7H74.5v-1.3c0-2.2,2.4-4,5.3-4a6,6,0,0,1,2.7.6A1.8,1.8,0,0,1,82.7,59.73ZM69.3,41.23a3.72,3.72,0,0,1-3.6,3.9H58.6v-5.4h9.5c0.3,0,.6.1,0.9,0.1A3.19,3.19,0,0,1,69.3,41.23Z"/><path class="cls-3" d="M24.4,66.33a6.7,6.7,0,0,1-1.1,1.8c-0.3.4-.8-1.3-0.9-1.7a8.74,8.74,0,0,1,.7-5.5,1.1,1.1,0,0,0-1.6-1.3l-0.3-.3c-1.8-1.7-4.2.5-5.1,2.1a9,9,0,0,0-1.2,3.8h0c-0.9,1.1-4.1,4.5-5.7,3.1-0.9-.8-1.2-2.5-1.3-4.2a52.29,52.29,0,0,0,5-6.4,18.58,18.58,0,0,0,3-11.2c-0.1-2.2-.8-5.2-3.4-5.5-2.8-.3-4.2,4.3-4.8,6.1A44.89,44.89,0,0,0,5.7,63a70.14,70.14,0,0,1-5.6,5.3v3a0.1,0.1,0,0,0,.1-0.1,53.68,53.68,0,0,0,5.7-5c0.3,1.9,1,3.8,2.7,4.4,2.4,0.9,5.2-.8,7-2.6a0.1,0.1,0,0,0,.1.1,0.38,0.38,0,0,0,.2.2c1.8,1.8,3.5,1.2,4.7-.3a9.14,9.14,0,0,0,.7,1.4,2.32,2.32,0,0,0,3.2.9A5.58,5.58,0,0,0,26.8,67C27.3,65.52,25,64.93,24.4,66.33Zm-16.5-6A45.74,45.74,0,0,1,10.1,47c0.4-1.3,2-5.5,3.1-2.4,1.9,5.7-1.7,11.5-5.3,15.7h0Zm11.8,3.9a6.79,6.79,0,0,1-.7,2c-0.4.8-.8,1-1.4,0.5-1-1.6.4-4.8,1.9-5.6,0.4-.2.4,0.2,0.5,0.7A19.67,19.67,0,0,1,19.7,64.23Z"/><path class="cls-3" d="M77.4,47.53H76.5a10.7,10.7,0,0,1-6.9,5.6,10.32,10.32,0,0,1-3,.4h0a12.34,12.34,0,0,0-1.8,6.6v18.6h0a3.7,3.7,0,1,0,7.4,0h0v-9.8H82.8v9.8h0a3.7,3.7,0,1,0,7.4,0V60.23A12.74,12.74,0,0,0,77.4,47.53Zm5.3,16H72.1v-3.7c0-2.2,2.4-4,5.3-4s5.3,1.8,5.3,4v3.7Z"/><path class="cls-3" d="M76.5,41.42c0-5.9-4.4-10.7-9.9-10.7H53.1a3.8,3.8,0,0,0-3.8,3.8v22.3a10.56,10.56,0,0,1,6.9,6.5,0.2,0.2,0,0,0,.1.2V52.13H66.7C72,52.12,76.5,47.33,76.5,41.42Zm-20.3,3.7v-7.8h9.5a3.91,3.91,0,0,1,0,7.8H56.2Z"/><path class="cls-3" d="M46.8,57.93c-4.4-.2-9.6-0.4-9.6-0.4a3.39,3.39,0,0,1-3.1-3.6,3.25,3.25,0,0,1,3.1-3.4H47.7v-7.6H37.2c-4.7,0-10.1,4.5-10.1,11.4,0,5.6,4.7,10.1,7.4,10.3s11.2,0.6,11.4.7a3.16,3.16,0,0,1,3.1,3.3,3.4,3.4,0,0,1-3.3,3.3H31a3.8,3.8,0,1,0,0,7.6H46c4.3,0,9.6-5,9.6-11.1S51.5,58.23,46.8,57.93Z"/><path class="cls-3" d="M95,42.12a0.2,0.2,0,0,0-.1-0.2l-0.2-.2a0.1,0.1,0,0,0-.1-0.1,0.1,0.1,0,0,1,0-.2c0.1,0,.2-0.1.1-0.2s-0.2-.1-0.3-0.2-0.3-.1-0.2-0.3v-0.1a1.47,1.47,0,0,1-.2-0.4,0.37,0.37,0,0,0-.1-0.3,0.6,0.6,0,0,1-.1-0.4,1.27,1.27,0,0,0-.1-0.6,0.53,0.53,0,0,0-.2-0.3c-0.1-.1-0.1-0.1,0-0.2a4.33,4.33,0,0,0-.1-0.5,0.48,0.48,0,0,0-.2-0.5h0c0-.1-0.1-0.1-0.2-0.1a0.37,0.37,0,0,1-.4-0.4,0.22,0.22,0,0,0-.2-0.2,1.42,1.42,0,0,1-.6-0.2v-0.1l-0.1-.1-0.1-.1a0.42,0.42,0,0,0-.4-0.3H90.9l-0.1-.1c-0.1,0-.2,0-0.2-0.1a1.22,1.22,0,0,0-.6,0,2.19,2.19,0,0,1-.3-0.5c-0.1-.1-0.3-0.1-0.4-0.2s-0.2,0-.3-0.1H88.8a0.32,0.32,0,0,1-.3,0H88.2a2.27,2.27,0,0,0-.4-0.1H87.5a0.6,0.6,0,0,0-.4.1H87c-0.1,0-.3-0.1-0.4-0.1H86.4a0.37,0.37,0,0,0-.3.1,0.2,0.2,0,0,1-.2.1H85.4a1.42,1.42,0,0,0-.6.2,0.2,0.2,0,0,0-.2.2c-0.1.1-.5,0.3-0.6,0.4a0.1,0.1,0,0,0-.1.1l-0.1-.1a0.53,0.53,0,0,1-.3.2,0.9,0.9,0,0,1-.5.1,1.42,1.42,0,0,0-.6.2,0.53,0.53,0,0,0-.3.2,1,1,0,0,0-.5.4l-0.1.1a0.4,0.4,0,0,0-.4.2,0.6,0.6,0,0,0-.1.4c0,0.1,0,.2-0.1.2a0.25,0.25,0,0,0-.1.4c0,0.1-.1.1-0.1,0.2a0.1,0.1,0,0,1-.1.1c-0.1.1-.1,0.1,0,0.1s0,0.2-.1.3-0.1.2-.1,0.2h0.1c0.1,0,.2-0.1.2,0s-0.1.1-.2,0.1,0,0.2-.1.2-0.1.1,0,.1a0.38,0.38,0,0,0,.2.2c-0.1,0-.1.1-0.2,0.1l0.1,0.1a0.1,0.1,0,0,1,.1.1h0.1l-0.1.1h0c0,0.1-.2.1-0.2,0.1s-0.1.5,0.1,0.3a0.3,0.3,0,0,0,0,.4,0.35,0.35,0,0,1,.1.2,0.83,0.83,0,0,0,0,.5v0.1h0s0.1-.2.1-0.1v0.1c-0.1.1,0,.1,0.1,0.2a0.1,0.1,0,0,1,.1.1c0,0.1-.1.2-0.1,0.3v0.1a0.22,0.22,0,0,0,.2.2,0.2,0.2,0,0,1,.2.1v0.1H81.1a0.2,0.2,0,0,1-.2-0.1c0,0.1.1,0.1,0.1,0.2V43a0.3,0.3,0,0,0,.1.4v0.1c0,0.1,0,.3.1,0.3l0.1,0.1c0.1,0,.1.1,0.1,0.2v0.2a0.76,0.76,0,0,0,.2.4l0.2,0.2a0.31,0.31,0,0,0,.2-0.1l0.5,0.5h0.1a0.32,0.32,0,0,1,.3,0,0.85,0.85,0,0,0,.5,0,0.42,0.42,0,0,1,.5.3,1.47,1.47,0,0,0,.4.2c0.1,0,.2,0,0.2.1s0.2,0.1.3,0.1a0.62,0.62,0,0,1,.4.3l0.2,0.2c0.1,0.1.1,0,.2,0s0.1,0.1.1,0.2L86,47c0.1,0.2.2,0.3,0.4,0.2h0.1v0.1c0,0.1,0,0-.1,0,0.1,0,.1.1,0.2,0.1a0.38,0.38,0,0,1,.2.2c0.1,0.1.3,0.1,0.4,0.2h0.4a0.1,0.1,0,0,1,.1.1h0.2a0.1,0.1,0,0,1,.1-0.1,1.42,1.42,0,0,0,.6-0.2H89l-0.1-.1a0.1,0.1,0,0,1,.1-0.1c0.1,0,.1.1,0.1,0.2h0.1c0.2,0,.3-0.1.5-0.1a0.76,0.76,0,0,1,.4-0.2c0.1,0,.2-0.1.3-0.1s0.1-.2.1-0.2a0.14,0.14,0,0,1-.2,0H90.2v0.1l-0.1.1c-0.1,0-.2-0.1-0.3-0.1,0.2-.1.3-0.2,0.5-0.3s0.1-.1.2,0,0.2,0.2.2,0.1,0.1,0,.1.1h0.3v-0.1a0.1,0.1,0,0,1-.1-0.1h0.3v-0.4c0.1-.1.1,0,0.1,0l0.1,0.1a0.22,0.22,0,0,0,.2-0.2,0.53,0.53,0,0,0,.2-0.3H92c0.1,0.1.2,0.1,0.2-.1s0.1-.1.2-0.1,0.1-.2.2-0.3a0.38,0.38,0,0,1,.2-0.2H93c0.1,0,.1-0.1,0-0.1l-0.1-.1c0.1,0,.1-0.1.2-0.1a0.31,0.31,0,0,1,.1.2c0.1,0,.1-0.1.2-0.1V45h0a0.2,0.2,0,0,1,.2.1c0-.1.1-0.1,0-0.2a0.14,0.14,0,0,1,0-.2l0.2,0.2a0.1,0.1,0,0,1,.1-0.1c0-.2.1,0.1,0.2-0.1s0.3-.2.2-0.4h0.1a0.45,0.45,0,0,0,.3-0.3,2.27,2.27,0,0,0,.1-0.4,0.32,0.32,0,0,0,0-.3v-0.1s0.1-.1.1,0,0.1,0,.2-0.1a0.35,0.35,0,0,1,.2-0.1l0.1-.1a1.08,1.08,0,0,1-.4-0.8C95.1,42.23,95,42.23,95,42.12Zm-13.9,0c0-.1-0.1-0.1,0,0a0.14,0.14,0,0,1,0-.2,0.14,0.14,0,0,1,0,.2C81.2,42,81.1,42,81.1,42.12Zm0.1-3c-0.1.1-.1,0-0.1-0.1s-0.1-.2,0-0.3a0.2,0.2,0,0,1,.2.2Zm0.1-1.9v-0.1h0.1a0.1,0.1,0,0,1,.1.1,0.22,0.22,0,0,1-.2.2A0.14,0.14,0,0,0,81.3,37.23Zm0.5,6.5a0.1,0.1,0,0,1-.1-0.1c-0.1-.1-0.3-0.2-0.2-0.4h0.2v0.1a0.2,0.2,0,0,0,.1.2C81.9,43.53,81.9,43.62,81.8,43.73Zm0.4,0.6c-0.1.1-.2,0.1-0.3-0.1,0.1-.1.3-0.1,0.3,0.1h0Zm-0.1-.5h0c0-.1,0-0.1.1-0.1h0.1A0.2,0.2,0,0,1,82.1,43.83Zm1.5-7.3v-0.1c0.1-.1.1,0,0.2,0S83.8,36.53,83.6,36.53Zm0.6,8.7h0a0.1,0.1,0,0,1-.1-0.1h0.1v0.1Zm0.2-.2H84.2c-0.1,0-.1.1-0.2,0.1L83.9,45l0.1-.1c0.1,0.1.1,0,.1,0,0.1-.2.3-0.1,0.3,0.1h0Zm0.2-9.4H84.4l0.1-.1,0.1,0.1h0Zm0.5,10.3h0a0.1,0.1,0,0,1-.1-0.1c0.1,0,.1-0.1.2-0.1h0a0.1,0.1,0,0,1,.1.1A0.2,0.2,0,0,0,85.1,45.92Zm1.3-10.6v0.2H86.3v-0.2h0.1Zm-0.7-.1c0.1,0,.2.1,0.3,0.1-0.1.1-.1,0.1-0.2,0a0.1,0.1,0,0,1-.1-0.1h0Zm0,10.7h0v-0.2h0.1a0.1,0.1,0,0,0,.1.1C85.8,46,85.8,46,85.7,45.92Zm0.4,0.5c0,0.1-.1.1-0.2,0.1s-0.1-.3.2-0.3v0.2Zm0.1,0.3c0-.1.1-0.1,0.1-0.2h0.1a0.2,0.2,0,0,0,.1.2H86.2Zm0-.6L86.1,46c0-.1-0.1-0.1,0-0.2v-0.1h0.3c-0.1.2,0.1,0.2,0.2,0.3C86.4,46.33,86.3,46.33,86.2,46.12ZM86.9,47H86.7a0.1,0.1,0,0,1,.1-0.1H86.7C86.9,46.83,86.9,46.83,86.9,47Zm0.8-11.4h0l-0.1-.1c0.1,0,.2-0.1.3-0.1a0.37,0.37,0,0,1-.3-0.1c-0.1.1-.1,0-0.2,0s0.1-.2.1-0.3h0v0.2h0c0-.1.1-0.2,0.2-0.1a0.37,0.37,0,0,0,.1.3C87.9,35.53,87.7,35.53,87.7,35.62Zm1.3,0.5a0.1,0.1,0,0,1-.1-0.1l0.1-.1v0.2h0Zm0-.5a0.1,0.1,0,0,1-.1-0.1,0.2,0.2,0,0,1,.1-0.2A0.19,0.19,0,0,1,89,35.62ZM89.3,36c-0.1,0-.1-0.1-0.1-0.2s0.1,0,.1.2C89.4,35.92,89.4,36,89.3,36Zm0.4,0a0.38,0.38,0,0,1-.2-0.2l0.1-.1a0.22,0.22,0,0,1,.2.2A0.1,0.1,0,0,1,89.7,36Zm0.6,0c0,0.1-.1.1-0.1,0.2a0.2,0.2,0,0,1-.1-0.2c0-.1.1-0.1,0.1-0.2s0.1,0,.1.2C90.4,35.92,90.4,36,90.3,36Zm1,0.5c-0.1,0-.1-0.1-0.2-0.1a0.3,0.3,0,0,0,0-.4h0.2a0.1,0.1,0,0,0,.1.1,0.48,0.48,0,0,0-.1.4h0ZM91.7,46H91.4a0.2,0.2,0,0,1,.2-0.1c0-.1,0-0.1.1,0.1h0Zm0-8.8h0a0.38,0.38,0,0,0-.2-0.2v-0.2c0-.1.1-0.2,0.1-0.1a0.6,0.6,0,0,0,.4.1h0.1a0.1,0.1,0,0,1-.1.1H91.7A0.19,0.19,0,0,1,91.7,37.23Zm0.4,8.4c-0.3-.1-0.3-0.3,0-0.5a2.27,2.27,0,0,1,.1.4C92.3,45.53,92.2,45.53,92.1,45.62Zm0-7.9H91.8l0.1-.1a0.35,0.35,0,0,0,.2-0.1h0.1a0.37,0.37,0,0,0,.1.3A0.2,0.2,0,0,0,92.1,37.73Zm0.2-.5c-0.1-.1-0.1-0.1,0-0.2a0.38,0.38,0,0,1,.2.2C92.4,37.12,92.4,37.23,92.3,37.23Zm0.3,0.6h0c-0.1,0-.2,0-0.2-0.1l0.1-.1s0.2,0,.1.1C92.7,37.83,92.6,37.83,92.6,37.83Zm0.5,1.1c0,0.1-.1.1,0,0-0.1,0-.2,0-0.2-0.1h0.2v0.1Zm1.2,2.6c0,0.1-.1.1-0.2,0.1s-0.1,0-.1-0.1,0-.2.1-0.2a0.37,0.37,0,0,0,.3-0.1A0.49,0.49,0,0,0,94.3,41.53Zm0.2,1.1a0.37,0.37,0,0,1,.1-0.3h0l0.2,0.2A0.37,0.37,0,0,0,94.5,42.62Zm0.3-.3a0.35,0.35,0,0,1-.1-0.2h0.2C94.9,42.23,94.9,42.42,94.8,42.33Z"/><path class="cls-3" d="M80.4,39.33h0Z"/><path class="cls-3" d="M86.2,31.92a0.37,0.37,0,0,0,.4.4v0.1h0.2l-0.1.1a0.85,0.85,0,0,0,.3.5c0.1,0.1.1,0.2,0.2,0.3a0.53,0.53,0,0,0,.3.2,1.09,1.09,0,0,1,.5.1,0.48,0.48,0,0,0,.4.1,0.76,0.76,0,0,0,.4-0.1c0.1-.1.2,0,0.3-0.1a0.24,0.24,0,0,0,.2-0.3V33h0l0.2,0.2h0V33h0.1c0-.1,0-0.1.2-0.3v-0.1a0.1,0.1,0,0,0,.1-0.1c0-.1.1-0.1,0.2-0.1s0-.2.1-0.2a0.35,0.35,0,0,0-.1-0.2v-0.3c0.1-.1.1-0.2,0-0.2a1.38,1.38,0,0,1,.3-0.4,0.48,0.48,0,0,0,.1-0.4c0-.1-0.1-0.3-0.1-0.4a0.83,0.83,0,0,1,0-.5v-0.2c0-.1-0.1-0.2-0.1-0.3a0.25,0.25,0,0,0-.2-0.3,0.1,0.1,0,0,1-.1.1,0.53,0.53,0,0,1-.3-0.2v-0.1a0.2,0.2,0,0,1,.1-0.2,0.1,0.1,0,0,0,.1-0.1,0.37,0.37,0,0,0-.3-0.1h0a1.06,1.06,0,0,1-.5-0.2,0.53,0.53,0,0,1-.3-0.2H88.6v0.1a0.22,0.22,0,0,0-.2.2v0.1h0.1c0,0.1,0,.1-0.1.1H88.3l-0.1.1c-0.1,0-.1-0.1-0.2-0.1H87.9a0.35,0.35,0,0,0,.1.2c0,0.1-.1.1-0.1,0.2a0.35,0.35,0,0,1-.2-0.1c-0.2-.1-0.2-0.1-0.3.1a0.1,0.1,0,0,1-.1.1,0.62,0.62,0,0,1-.3.4l-0.1.1c-0.1.1-.2,0.3-0.3,0.4v0.6h0v0.2c0,0.2-.1.3-0.1,0.5a0.35,0.35,0,0,0,.2.1A0.82,0.82,0,0,0,86.2,31.92Zm0.5-1a0.35,0.35,0,0,1,.1.2H86.7v-0.2h0Zm0,0.7a0.22,0.22,0,0,0,.2-0.2l0.1-.1c0.1,0.1.2,0.1,0.1,0.4C86.8,31.92,86.5,31.62,86.7,31.62Z"/><path class="cls-3" d="M99.7,37.83v-0.2a0.16,0.16,0,0,1-.2-0.2v-0.1a0.38,0.38,0,0,0-.2-0.2,0.31,0.31,0,0,1-.2-0.1c-0.1-.1-0.1-0.1-0.2,0H98.7v-0.1l0.1-.1-0.1-.1a0.1,0.1,0,0,1-.1-0.1c-0.1,0-.1-0.1-0.2-0.1H98.3a0.64,0.64,0,0,0-.6,0H97.6a0.53,0.53,0,0,0-.3.2,0.36,0.36,0,0,1-.6.1l0.1-.1a0.2,0.2,0,0,1,.2.1v-0.2a0.35,0.35,0,0,1-.2-0.1H96.6a0.2,0.2,0,0,0-.2.1,0.38,0.38,0,0,1-.2.2v0.1c0,0.1,0,.2-0.1.2H95.9L96,37l-0.1-.1-0.1.1a0.2,0.2,0,0,1-.1.2,0.37,0.37,0,0,0-.1.3l-0.1.1c-0.1.1-.2,0.1-0.3,0.2s-0.3.3-.2,0.5a0.37,0.37,0,0,1-.1.3c-0.1.2-.1,0.2,0.1,0.3s0.1,0.2,0,.2a0.14,0.14,0,0,0,0,.2,0.1,0.1,0,0,1,.1.1c0,0.1.2,0.1,0.3,0.1-0.1.2,0,.3,0.2,0.4a1.69,1.69,0,0,1,.6.3c0.2,0,.3.1,0.5,0.1a0.37,0.37,0,0,1,.3.1h0.1c0.1-.1.1,0,0.2,0h0.2v-0.2a0.35,0.35,0,0,0,.3-0.4,0.22,0.22,0,0,1,.2-0.2h0a0.77,0.77,0,0,0-.2.3V40h0.3a0.16,0.16,0,0,0,.2-0.2h0a0.33,0.33,0,0,0,.5-0.1,0.62,0.62,0,0,0,.3-0.4h0l0.3-.3,0.1-.1a0.37,0.37,0,0,0,.1-0.3c0-.2.1-0.3,0.1-0.5h0v-0.3H99.3C99.6,38,99.6,37.83,99.7,37.83Zm-4.1.4c0.1,0.1.1,0.2-.1,0.3S95.4,38.53,95.6,38.23Zm0,1.5h0l-0.1-.1h0.2Zm0.9-2.1a0.1,0.1,0,0,1-.1-0.1v-0.1a0.2,0.2,0,0,1,.1.2h0ZM97.1,40l-0.1.1a0.35,0.35,0,0,0-.1-0.2l0.1-.1c0.1,0,.1,0,0.1.2h0Zm0.2-.2c-0.1,0-.1-0.1,0,0a0.14,0.14,0,0,1,0-.2c0.1,0.1.1,0.1,0,.2h0Zm1,0.1c0-.1-0.2-0.2-0.2-0.3h0C98.3,39.62,98.4,39.73,98.3,39.92Zm0.4-2.3h0c-0.1-.1-0.1-0.1,0-0.2,0,0.1.1,0.1,0,.2h0Zm0.3,0c0.1-.1,0-0.2.1-0.2s0.1,0,.1.1,0,0.2-.2.1h0Zm0.4,1.1a0.52,0.52,0,0,1-.4-0.2c0-.1.1-0.2,0.3-0.1S99.5,38.53,99.4,38.73Z"/><path class="cls-3" d="M80.5,32.12a4.33,4.33,0,0,0,.1.5v0.1a0.55,0.55,0,0,1,0,.4v0.1a0.38,0.38,0,0,1,.2.2,1.79,1.79,0,0,0,.5.7l0.1,0.1a0.22,0.22,0,0,0,.2.2l0.1-.1a0.53,0.53,0,0,1,.2.3,0.38,0.38,0,0,1,.2.2h0.3a1.7,1.7,0,0,1,.7-0.1c0.1,0,.2-0.1.1-0.2,0.1-.1.2,0,0.3-0.1s-0.2-.1,0-0.1v-0.1h0.3c-0.1-.2.1-0.1,0.2-0.2s-0.1-.1-0.1-0.2a0.2,0.2,0,0,1,.1-0.2v-0.2a0.1,0.1,0,0,1,.1.1c0-.1.1-0.2,0.1-0.3h0a0.32,0.32,0,0,1,0-.3v-0.2a0.37,0.37,0,0,1,.1-0.3c0.1-.2,0-0.3-0.2-0.4l0.1-.1v-0.1c-0.1-.1,0-0.3-0.2-0.2a0.88,0.88,0,0,1-.7-0.1l-0.1-.1a0.32,0.32,0,0,0,0-.3,0.1,0.1,0,0,1,.1-0.1h0.1c0.1,0.1.4,0,.2,0.2s0.5,0.1.4-.2c-0.1-.1-0.1-0.2-0.2-0.3s-0.2.1-.3,0.1l-0.1-.1a0.1,0.1,0,0,0,.1-0.1l0.1-.1c-0.1-.1-0.1-0.2-0.2-0.3H83.2V30h0a1.06,1.06,0,0,0-.5-0.2H82.5a0.1,0.1,0,0,1-.1-0.1,0.1,0.1,0,0,0-.1-0.1H82.2a0.3,0.3,0,0,0-.4,0,0.76,0.76,0,0,1-.5.2,0.22,0.22,0,0,0-.2.2,0.38,0.38,0,0,1-.2.2,0.67,0.67,0,0,0-.5.7V31c0,0.1-.1.1-0.1,0.2a0.34,0.34,0,0,1-.2.3c0.3,0.4.3,0.5,0.4,0.6h0Zm2.7-1h0c-0.1-.1,0-0.1,0-0.1s0.1,0,0,.1h0Zm0.1-.3v0.1H83.1C83.2,30.83,83.2,30.73,83.3,30.83Zm-0.5.9h0c0.1,0.1.1,0.1,0,.2A0.14,0.14,0,0,1,82.8,31.73Zm-1.6,2h0c0,0.1,0,.2-0.1.2l-0.1-.1C81.1,33.83,81.2,33.83,81.2,33.73Z"/><path class="cls-3" d="M91.9,34.73a0.22,0.22,0,0,1,.2.2,0.22,0.22,0,0,0,.2.2c0.1,0,.2.1,0.1,0.2s-0.1.2,0.1,0.3,0.3,0.1.5,0.1h0.6a0.34,0.34,0,0,0,.2.3H94c0.1,0,.2,0,0.2-0.1s0.1-.1.1-0.2l0.1-.1a0.1,0.1,0,0,1,.1-0.1,0.1,0.1,0,0,0,.1-0.1v-0.1h0.2a0.19,0.19,0,0,0,.3,0l0.2-.2V35c0.1,0,.1-0.1.2-0.1-0.1,0-.1,0-0.1-0.1l-0.1-.1,0.1-.1,0.1,0.1h0.1v-0.3a0.1,0.1,0,0,1,.1.1c0,0.1.1,0.1,0.2,0.1H96c0.2,0.1.3,0,.3-0.2s0.1-.3.1-0.4,0.1-.1,0-0.2,0-.2.1-0.2,0.2-.1.1-0.3v-0.1a1.63,1.63,0,0,0,0-.7h0a2,2,0,0,0-.1-0.7,0.76,0.76,0,0,0-.2-0.5c-0.1-.2-0.1-0.3-0.2-0.5H96a1.33,1.33,0,0,0-.5-0.3h0a0.48,0.48,0,0,0-.4-0.1H95a0.35,0.35,0,0,0-.5.1h0c-0.1.1-.2,0.1-0.3,0.2H93.5a0.22,0.22,0,0,0-.2.2c0.1,0,.1.1,0.2,0.1a0.38,0.38,0,0,0-.2.2c-0.1.1-.3,0.2-0.4,0.3a0.53,0.53,0,0,0-.2.3c0,0.1,0,.2-0.1.2a0.53,0.53,0,0,0-.2.3H92.3c-0.1,0-.1,0-0.1.1a0.37,0.37,0,0,1-.1.3h0.2l-0.2.2c-0.1,0-.1.1-0.1,0.2s0,0.2-.1.2-0.1.1,0,.2,0.1,0.1.1,0.2-0.1.2-.2,0.3v0.1a0.48,0.48,0,0,1-.1.5A0.31,0.31,0,0,0,91.9,34.73Zm3.9-1c0.1,0.1.1,0.2-.1,0.2C95.8,33.92,95.8,33.83,95.8,33.73Zm-0.5-2.8-0.1.1a0.1,0.1,0,0,1-.1-0.1,0.1,0.1,0,0,0-.1-0.1C95.2,30.73,95.2,30.92,95.3,30.92Zm-0.5,3.9h0c0.1,0.1.2,0.2,0.1,0.2s-0.1-.1-0.1-0.2h0Zm-0.5.5v0.2H94.1ZM94,35h0l-0.1.1v-0.2A0.1,0.1,0,0,0,94,35Zm-0.1.3c0.1,0,.1-0.1.2-0.1s0.1,0.2-.2.1h0c0.1,0.1,0,.1,0,0.2,0-.1-0.1-0.1,0-0.2h0ZM93,31.83h0c0.1,0,.2,0,0.2.1a0.38,0.38,0,0,1-.2.2C92.9,32,92.8,31.92,93,31.83ZM92.8,35c0-.1,0-0.1.1-0.1L93,35v0.5h0a0.2,0.2,0,0,1-.2-0.1V35Zm-0.2-2.6h0a0.2,0.2,0,0,1,.1.2H92.6v-0.2Zm-0.5,1.4h0a0.2,0.2,0,0,1,.1.2l-0.1.1A0.1,0.1,0,0,1,92,34,0.2,0.2,0,0,0,92.1,33.83Z"/></svg>